<svg xmlns="http://www.w3.org/2000/svg" xmlns:xlink="http://www.w3.org/1999/xlink" xmlns:lucid="lucid" width="1111" height="1299"><g transform="translate(-371 -162)" lucid:page-tab-id="m-5o7ONTd-nK"><path d="M0 0h2034.53v1575.72H0z" fill="#fff"/><path d="M393.93 857.38v-672h40v672z" stroke="#666" stroke-width="2" fill="#259b9c"/><path d="M433.93 1436.68h-40v-579.3h40z" stroke="#666" stroke-width="2" fill="#3fb8b9"/><path d="M433.93 185.38h1025.93v672H433.93z" stroke="#666" stroke-width="2" fill="none"/><path d="M1459.86 857.38v579.3H433.93v-579.3z" stroke="#666" stroke-width="2" fill="none"/><use xlink:href="#a" transform="matrix(-1.8369701987210297e-16,-1,1,-1.8369701987210297e-16,393.9297103374968,857.3764283816106) translate(270.825 23.6)"/><use xlink:href="#b" transform="matrix(-1.8369701987210297e-16,-1,1,-1.8369701987210297e-16,393.9297103374968,857.3764283816106) translate(325.325 23.6)"/><use xlink:href="#c" transform="matrix(-1.8369701987210297e-16,-1,1,-1.8369701987210297e-16,393.9297103374968,857.3764283816106) translate(335.325 23.6)"/><use xlink:href="#d" transform="matrix(-1.8369701987210297e-16,-1,1,-1.8369701987210297e-16,393.9297103374969,1436.684825936753) translate(237.575 23.6)"/><use xlink:href="#e" transform="matrix(-1.8369701987210297e-16,-1,1,-1.8369701987210297e-16,393.9297103374969,1436.684825936753) translate(271.525 23.6)"/><path d="M629.83 130.7c0-4.43 3.58-8 8-8h763.5c4.43 0 8 3.57 8 8v4c0 4.4-3.57 8-8 8h-763.5c-4.42 0-8-3.6-8-8z" stroke="#000" stroke-opacity="0" stroke-width="2" fill="#fff" fill-opacity="0"/><use xlink:href="#f" transform="matrix(1,0,0,1,634.8252305221758,127.68934360882275) translate(247.46296296296296 12.444444444444446)"/><use xlink:href="#g" transform="matrix(1,0,0,1,634.8252305221758,127.68934360882275) translate(299.2283950617284 12.444444444444446)"/><use xlink:href="#h" transform="matrix(1,0,0,1,634.8252305221758,127.68934360882275) translate(377.74074074074076 12.444444444444446)"/><use xlink:href="#i" transform="matrix(1,0,0,1,634.8252305221758,127.68934360882275) translate(390.40123456790127 12.444444444444446)"/><use xlink:href="#j" transform="matrix(1,0,0,1,634.8252305221758,127.68934360882275) translate(470.6851851851852 12.444444444444446)"/><use xlink:href="#k" transform="matrix(1,0,0,1,634.8252305221758,127.68934360882275) translate(487.96913580246917 12.444444444444446)"/><path d="M509.8 262.9c0-4.42 3.57-8 8-8h144c4.4 0 8 3.58 8 8v104c0 4.4-3.6 8-8 8h-144c-4.43 0-8-3.6-8-8z" stroke="#000" stroke-opacity="0" stroke-width="2" fill="#019280"/><use xlink:href="#l" transform="matrix(1,0,0,1,514.7913898485251,259.8956949242626) translate(41.48236043034352 49.063842339150206)"/><use xlink:href="#m" transform="matrix(1,0,0,1,514.7913898485251,259.8956949242626) translate(36.65121447295466 70.69135584787551)"/><path d="M806 722.98V817.52h-.03v78.65" stroke="#666" fill="none"/><path d="M806.5 723h-1v-.52h1z" fill="#666"/><path d="M805.97 910.93l-4.63-14.26h9.27z" stroke="#666" fill="#666"/><path d="M799.9 914.6c3.37-2.84 8.85-2.84 12.22 0l79.48 67.13c3.37 2.85 3.37 7.47 0 10.33l-79.48 67.1c-3.37 2.87-8.85 2.87-12.22 0l-79.48-67.1c-3.37-2.86-3.37-7.48 0-10.33z" stroke="#000" stroke-opacity="0" stroke-width="2" fill="#259b9c"/><use xlink:href="#n" transform="matrix(1,0,0,1,719.3110226382523,914.4507595889811) translate(54.513666048234434 54.376342339150206)"/><use xlink:href="#o" transform="matrix(1,0,0,1,719.3110226382523,914.4507595889811) translate(110.53493367847429 54.376342339150206)"/><use xlink:href="#p" transform="matrix(1,0,0,1,719.3110226382523,914.4507595889811) translate(13.957078219374477 76.00385584787551)"/><use xlink:href="#q" transform="matrix(1,0,0,1,719.3110226382523,914.4507595889811) translate(70.97961962316644 76.00385584787551)"/><use xlink:href="#r" transform="matrix(1,0,0,1,719.3110226382523,914.4507595889811) translate(96.96267404684338 76.00385584787551)"/><use xlink:href="#s" transform="matrix(1,0,0,1,719.3110226382523,914.4507595889811) translate(66.00328259974475 97.63136935660083)"/><use xlink:href="#t" transform="matrix(1,0,0,1,719.3110226382523,914.4507595889811) translate(83.9761468350049 97.63136935660083)"/><path d="M806 1061.74v67.56c0 6.63-5.36 12-12 12H555.46c-6.63 0-12 5.37-12 12v81.62" stroke="#000" fill="none"/><path d="M806.5 1061.75h-1v-.5l1-.04z"/><path d="M543.45 1249.7l-4.64-14.28h9.28z" stroke="#000"/><use xlink:href="#u" transform="matrix(1,0,0,1,583.2087732351581,1145.3009677562227) translate(43.86079128158187 18.126342339150206)"/><use xlink:href="#v" transform="matrix(1,0,0,1,583.2087732351581,1145.3009677562227) translate(17.201877060757266 39.75385584787552)"/><path d="M463.45 1259.3c0-4.4 3.58-8 8-8h144c4.4 0 8 3.6 8 8v104c0 4.42-3.6 8-8 8h-144c-4.42 0-8-3.58-8-8z" stroke="#000" stroke-opacity="0" stroke-width="2" fill="#259b9c"/><use xlink:href="#w" transform="matrix(1,0,0,1,468.4467180441138,1256.3061387191074) translate(13.021153417125145 35.313842339150206)"/><use xlink:href="#x" transform="matrix(1,0,0,1,468.4467180441138,1256.3061387191074) translate(83.91133658461366 35.313842339150206)"/><use xlink:href="#y" transform="matrix(1,0,0,1,468.4467180441138,1256.3061387191074) translate(28.991470105281106 56.94135584787552)"/><use xlink:href="#z" transform="matrix(1,0,0,1,468.4467180441138,1256.3061387191074) translate(49.01694557632306 56.94135584787552)"/><use xlink:href="#A" transform="matrix(1,0,0,1,468.4467180441138,1256.3061387191074) translate(40.50611850113023 78.56886935660083)"/><path d="M1050.84 987.4H894.58v-1h156.26zm163.36-5.74h-140.38v-1h140.38z" fill="#666"/><path d="M894.6 987.4h-.54l.05-1h.5zM1228.96 981.16l-14.26 4.64v-9.27z" fill="#666"/><path d="M1230.58 981.16l-16.38 5.33v-10.66zm-15.38 3.95l12.14-3.94-12.14-3.94z" fill="#666"/><use xlink:href="#B" transform="matrix(1,0,0,1,1050.8420167075558,971.3608496323852) translate(0.005000000000000782 18.126342339150206)"/><path d="M1358.58 941.16c17.67 0 32 17.9 32 40s-14.33 40-32 40h-96c-17.67 0-32-17.9-32-40s14.33-40 32-40z" stroke="#000" stroke-opacity="0" stroke-width="2" fill="#259b9c"/><use xlink:href="#C" transform="matrix(1,0,0,1,1235.5806956005993,946.1637766852684) translate(31.494654539161356 37.813842339150206)"/><use xlink:href="#D" transform="matrix(1,0,0,1,1235.5806956005993,946.1637766852684) translate(59.480256509942485 37.813842339150206)"/><path d="M806 1061.74v173.18" stroke="#666" fill="none"/><path d="M806.5 1061.75h-1v-.5l1-.04z" fill="#666"/><path d="M806 1249.7l-4.63-14.28h9.28z" stroke="#666" fill="#666"/><use xlink:href="#u" transform="matrix(1,0,0,1,706.3435731049444,1149.5748927213112) translate(48.34149141822752 18.126342339150206)"/><use xlink:href="#E" transform="matrix(1,0,0,1,706.3435731049444,1149.5748927213112) translate(17.20187706075728 39.75385584787552)"/><path d="M670.3 314.9h35.32" stroke="#666" fill="none"/><path d="M670.3 315.4h-.5v-1h.5z" fill="#666"/><path d="M720.38 314.9l-14.26 4.63v-9.27z" stroke="#666" fill="#666"/><path d="M799.84 247.58c3.4-2.82 8.93-2.82 12.34 0l75.33 62.22c3.42 2.8 3.42 7.38 0 10.2l-75.32 62.2c-3.4 2.83-8.93 2.83-12.34 0L724.5 320c-3.4-2.82-3.4-7.4 0-10.2z" stroke="#000" stroke-opacity="0" stroke-width="2" fill="#019280"/><use xlink:href="#F" transform="matrix(1,0,0,1,723.3424129683764,247.48214522986976) translate(41.5278708173804 60.313842339150206)"/><use xlink:href="#G" transform="matrix(1,0,0,1,723.3424129683764,247.48214522986976) translate(102.50544362670314 60.313842339150206)"/><use xlink:href="#H" transform="matrix(1,0,0,1,723.3424129683764,247.48214522986976) translate(22.453605431212946 81.94135584787551)"/><use xlink:href="#s" transform="matrix(1,0,0,1,723.3424129683764,247.48214522986976) translate(90.5402220327556 81.94135584787551)"/><use xlink:href="#I" transform="matrix(1,0,0,1,723.3424129683764,247.48214522986976) translate(108.51308626801574 81.94135584787551)"/><path d="M806.5 586.1h-1v-80.07h1zm0-105.4h-1v-95.96h1z" fill="#666"/><path d="M806.5 384.75h-1v-.5l1-.03zM806 600.86l-4.63-14.26h9.28z" fill="#666"/><path d="M806 602.48l-5.3-16.38h10.63zm-3.94-15.38l3.95 12.14 3.96-12.14z" fill="#666"/><use xlink:href="#J" transform="matrix(1,0,0,1,791.3164944467619,480.69327629734414) translate(0.005000000000000782 18.126342339150206)"/><path d="M1230.58 262.9c0-4.42 3.58-8 8-8h144c4.42 0 8 3.58 8 8v104c0 4.4-3.58 8-8 8h-144c-4.42 0-8-3.6-8-8z" stroke="#000" stroke-opacity="0" stroke-width="2" fill="#019280"/><use xlink:href="#K" transform="matrix(1,0,0,1,1235.5806956005993,259.89569492426256) translate(24.01013308185942 49.063842339150206)"/><use xlink:href="#L" transform="matrix(1,0,0,1,1235.5806956005993,259.89569492426256) translate(65.96350419369232 49.063842339150206)"/><use xlink:href="#M" transform="matrix(1,0,0,1,1235.5806956005993,259.89569492426256) translate(46.98936618488007 70.69135584787551)"/><path d="M973.24 448.27c0-4.4 3.58-8 8-8h144c4.42 0 8 3.6 8 8v104c0 4.42-3.58 8-8 8h-144c-4.42 0-8-3.58-8-8z" stroke="#000" stroke-opacity="0" stroke-width="2" fill="#019280"/><use xlink:href="#N" transform="matrix(1,0,0,1,978.2381078926389,445.27438214190806) translate(45.98809241132797 35.313842339150206)"/><use xlink:href="#r" transform="matrix(1,0,0,1,978.2381078926389,445.27438214190806) translate(43.45987613310892 56.94135584787552)"/><use xlink:href="#O" transform="matrix(1,0,0,1,978.2381078926389,445.27438214190806) translate(27.48955944495297 78.56886935660083)"/><path d="M1228.13 448.27c0-4.4 3.6-8 8-8h144c4.42 0 8 3.6 8 8v104c0 4.42-3.58 8-8 8h-144c-4.4 0-8-3.58-8-8z" stroke="#000" stroke-opacity="0" stroke-width="2" fill="#019280"/><use xlink:href="#P" transform="matrix(1,0,0,1,1233.1338028169014,445.27438214190806) translate(19.98000614331222 49.063842339150206)"/><use xlink:href="#p" transform="matrix(1,0,0,1,1233.1338028169014,445.27438214190806) translate(52.02076689697935 49.063842339150206)"/><use xlink:href="#G" transform="matrix(1,0,0,1,1233.1338028169014,445.27438214190806) translate(109.04330830077133 49.063842339150206)"/><use xlink:href="#Q" transform="matrix(1,0,0,1,1233.1338028169014,445.27438214190806) translate(43.45987613310892 70.69135584787551)"/><path d="M1133.74 500.27h78" stroke="#666" fill="none"/><path d="M1133.75 500.77h-.5v-1h.5z" fill="#666"/><path d="M1226.52 500.27l-14.27 4.64v-9.26z" stroke="#666" fill="#666"/><path d="M726 1259.3c0-4.4 3.6-8 8-8h144c4.43 0 8 3.6 8 8v104c0 4.42-3.57 8-8 8H734c-4.4 0-8-3.58-8-8z" stroke="#000" stroke-opacity="0" stroke-width="2" fill="#259b9c"/><use xlink:href="#R" transform="matrix(1,0,0,1,731.0101870736389,1256.3061387191076) translate(46.48872929810402 35.313842339150206)"/><use xlink:href="#S" transform="matrix(1,0,0,1,731.0101870736389,1256.3061387191076) translate(13.546822148240008 56.94135584787552)"/><use xlink:href="#T" transform="matrix(1,0,0,1,731.0101870736389,1256.3061387191076) translate(97.5036280605834 56.94135584787552)"/><use xlink:href="#U" transform="matrix(1,0,0,1,731.0101870736389,1256.3061387191076) translate(25.962616940286008 78.56886935660083)"/><use xlink:href="#V" transform="matrix(1,0,0,1,731.0101870736389,1256.3061387191076) translate(50.994461279088455 78.56886935660083)"/><path d="M988.57 1259.3c0-4.4 3.6-8 8-8h144c4.42 0 8 3.6 8 8v104c0 4.42-3.58 8-8 8h-144c-4.4 0-8-3.58-8-8z" stroke="#000" stroke-opacity="0" stroke-width="2" fill="#259b9c"/><g><use xlink:href="#R" transform="matrix(1,0,0,1,993.573656103164,1256.3061387191074) translate(46.48872929810402 25.001342339150206)"/><use xlink:href="#W" transform="matrix(1,0,0,1,993.573656103164,1256.3061387191074) translate(35.524781477708544 46.62885584787552)"/><use xlink:href="#X" transform="matrix(1,0,0,1,993.573656103164,1256.3061387191074) translate(39.50484472757813 68.25636935660083)"/><use xlink:href="#Y" transform="matrix(1,0,0,1,993.573656103164,1256.3061387191074) translate(90.4696798013799 68.25636935660083)"/><use xlink:href="#V" transform="matrix(1,0,0,1,993.573656103164,1256.3061387191074) translate(38.47853910968723 89.88388286532614)"/></g><path d="M440.77 314.9h4.4m4.38 0h8.77m4.38 0h8.78m4.38 0h8.78m4.38 0h4.4M440.8 314.9h-.53" stroke="#666" fill="none"/><path d="M508.17 314.9l-14.26 4.63v-9.27z" stroke="#666" fill="#666"/><path d="M806 1061.74v67.56c0 6.63 5.38 12 12 12h238.57c6.63 0 12 5.37 12 12v81.62" stroke="#666" fill="none"/><path d="M806.5 1061.75h-1v-.5l1-.04z" fill="#666"/><path d="M1068.57 1249.7l-4.63-14.28h9.27z" stroke="#666" fill="#666"/><g><use xlink:href="#u" transform="matrix(1,0,0,1,963.4935804164063,1145.3009677562227) translate(48.34149141822752 18.126342339150206)"/><use xlink:href="#E" transform="matrix(1,0,0,1,963.4935804164063,1145.3009677562227) translate(17.20187706075728 39.75385584787552)"/></g><path d="M509.8 425.1c0-4.42 3.57-8 8-8h144c4.4 0 8 3.58 8 8v104c0 4.42-3.6 8-8 8h-144c-4.43 0-8-3.58-8-8z" stroke="#000" stroke-opacity="0" stroke-width="2" fill="#019280"/><g><use xlink:href="#P" transform="matrix(1,0,0,1,514.7913898485251,422.1020462397024) translate(17.00121666699472 35.313842339150206)"/><use xlink:href="#Z" transform="matrix(1,0,0,1,514.7913898485251,422.1020462397024) translate(49.04197742066185 35.313842339150206)"/><use xlink:href="#aa" transform="matrix(1,0,0,1,514.7913898485251,422.1020462397024) translate(42.03306100579718 56.94135584787552)"/><use xlink:href="#ab" transform="matrix(1,0,0,1,514.7913898485251,422.1020462397024) translate(44.48618175099982 78.56886935660083)"/></g><path d="M726 610.48c0-4.42 3.6-8 8-8h144c4.43 0 8 3.58 8 8v104c0 4.42-3.57 8-8 8H734c-4.4 0-8-3.58-8-8z" stroke="#000" stroke-opacity="0" stroke-width="2" fill="#019280"/><g><use xlink:href="#ac" transform="matrix(1,0,0,1,731.0101870736389,607.4807334573479) translate(37.97790222291118 49.063842339150206)"/><use xlink:href="#ad" transform="matrix(1,0,0,1,731.0101870736389,607.4807334573479) translate(83.03522203275557 49.063842339150206)"/><use xlink:href="#ae" transform="matrix(1,0,0,1,731.0101870736389,607.4807334573479) translate(39.50484472757813 70.69135584787551)"/></g><path d="M1308.13 560.77v89.7c0 6.64-5.37 12-12 12H902.4" stroke="#666" fill="none"/><path d="M1308.63 560.8h-1v-.53h1z" fill="#666"/><path d="M887.63 662.48l14.26-4.63v9.27z" stroke="#666" fill="#666"/><path d="M1308.13 439.77v-48.5" stroke="#666" fill="none"/><path d="M1308.63 440.27h-1v-.5h1z" fill="#666"/><path d="M1308.13 376.5l4.64 14.28h-9.27z" stroke="#666" fill="#666"/><path d="M589.8 375.4v25.32" stroke="#666" fill="none"/><path d="M590.3 375.4h-1v-.5h1z" fill="#666"/><path d="M589.8 415.48l-4.64-14.26h9.27z" stroke="#666" fill="#666"/><path d="M920.14 315.4h-29.62v-1h29.62zm36.7 0h-13.72v-1h13.73z" fill="#666"/><path d="M890.53 315.4H890l.04-1h.5zM971.62 314.9l-14.27 4.63v-9.27z" fill="#666"/><path d="M973.24 314.9l-16.4 5.32v-10.65zm-15.4 3.94L970 314.9l-12.15-3.95z" fill="#666"/><g><use xlink:href="#B" transform="matrix(1,0,0,1,920.1380814164964,302.2279381698999) translate(0.005000000000000782 18.126342339150206)"/></g><path d="M973.24 262.9c0-4.42 3.58-8 8-8h144c4.42 0 8 3.58 8 8v104c0 4.4-3.58 8-8 8h-144c-4.42 0-8-3.6-8-8z" stroke="#000" stroke-opacity="0" stroke-width="2" fill="#019280"/><g><use xlink:href="#af" transform="matrix(1,0,0,1,985.2381078926389,266.8956949242626) translate(12.980006143312234 42.126342339150206)"/><use xlink:href="#L" transform="matrix(1,0,0,1,985.2381078926389,266.8956949242626) translate(62.993631132239514 42.126342339150206)"/><use xlink:href="#M" transform="matrix(1,0,0,1,985.2381078926389,266.8956949242626) translate(39.98936618488007 63.75385584787552)"/></g><path d="M1053.24 375.4v48.5" stroke="#666" fill="none"/><path d="M1053.74 375.4h-1v-.5h1z" fill="#666"/><path d="M1053.24 438.66l-4.64-14.27h9.27z" stroke="#666" fill="#666"/><defs><path fill="#fff" d="M137 0h-34L2-248h35l83 218 83-218h36" id="ag"/><path fill="#fff" d="M24-231v-30h32v30H24zM24 0v-190h32V0H24" id="ah"/><path fill="#fff" d="M135-143c-3-34-86-38-87 0 15 53 115 12 119 90S17 21 10-45l28-5c4 36 97 45 98 0-10-56-113-15-118-90-4-57 82-63 122-42 12 7 21 19 24 35" id="ai"/><path fill="#fff" d="M59-47c-2 24 18 29 38 22v24C64 9 27 4 27-40v-127H5v-23h24l9-43h21v43h35v23H59v120" id="aj"/><path fill="#fff" d="M100-194c62-1 85 37 85 99 1 63-27 99-86 99S16-35 15-95c0-66 28-99 85-99zM99-20c44 1 53-31 53-75 0-43-8-75-51-75s-53 32-53 75 10 74 51 75" id="ak"/><path fill="#fff" d="M114-163C36-179 61-72 57 0H25l-1-190h30c1 12-1 29 2 39 6-27 23-49 58-41v29" id="al"/><g id="a"><use transform="matrix(0.05,0,0,0.05,0,0)" xlink:href="#ag"/><use transform="matrix(0.05,0,0,0.05,11.65,0)" xlink:href="#ah"/><use transform="matrix(0.05,0,0,0.05,15.600000000000001,0)" xlink:href="#ai"/><use transform="matrix(0.05,0,0,0.05,24.6,0)" xlink:href="#ah"/><use transform="matrix(0.05,0,0,0.05,28.55,0)" xlink:href="#aj"/><use transform="matrix(0.05,0,0,0.05,33.55,0)" xlink:href="#ak"/><use transform="matrix(0.05,0,0,0.05,43.55,0)" xlink:href="#al"/></g><path fill="#fff" d="M0 4l72-265h28L28 4H0" id="am"/><use transform="matrix(0.05,0,0,0.05,0,0)" xlink:href="#am" id="b"/><path fill="#fff" d="M160-131c35 5 61 23 61 61C221 17 115-2 30 0v-248c76 3 177-17 177 60 0 33-19 50-47 57zm-97-11c50-1 110 9 110-42 0-47-63-36-110-37v79zm0 115c55-2 124 14 124-45 0-56-70-42-124-44v89" id="an"/><path fill="#fff" d="M206 0h-36l-40-164L89 0H53L-1-190h32L70-26l43-164h34l41 164 42-164h31" id="ao"/><path fill="#fff" d="M100-194c63 0 86 42 84 106H49c0 40 14 67 53 68 26 1 43-12 49-29l28 8c-11 28-37 45-77 45C44 4 14-33 15-96c1-61 26-98 85-98zm52 81c6-60-76-77-97-28-3 7-6 17-6 28h103" id="ap"/><g id="c"><use transform="matrix(0.05,0,0,0.05,0,0)" xlink:href="#an"/><use transform="matrix(0.05,0,0,0.05,12,0)" xlink:href="#al"/><use transform="matrix(0.05,0,0,0.05,17.95,0)" xlink:href="#ak"/><use transform="matrix(0.05,0,0,0.05,27.950000000000003,0)" xlink:href="#ao"/><use transform="matrix(0.05,0,0,0.05,40.9,0)" xlink:href="#ai"/><use transform="matrix(0.05,0,0,0.05,49.9,0)" xlink:href="#ap"/><use transform="matrix(0.05,0,0,0.05,59.900000000000006,0)" xlink:href="#al"/></g><path fill="#fff" d="M127-220V0H93v-220H8v-28h204v28h-85" id="aq"/><path fill="#fff" d="M141-36C126-15 110 5 73 4 37 3 15-17 15-53c-1-64 63-63 125-63 3-35-9-54-41-54-24 1-41 7-42 31l-33-3c5-37 33-52 76-52 45 0 72 20 72 64v82c-1 20 7 32 28 27v20c-31 9-61-2-59-35zM48-53c0 20 12 33 32 33 41-3 63-29 60-74-43 2-92-5-92 41" id="ar"/><path fill="#fff" d="M177-190C167-65 218 103 67 71c-23-6-38-20-44-43l32-5c15 47 100 32 89-28v-30C133-14 115 1 83 1 29 1 15-40 15-95c0-56 16-97 71-98 29-1 48 16 59 35 1-10 0-23 2-32h30zM94-22c36 0 50-32 50-73 0-42-14-75-50-75-39 0-46 34-46 75s6 73 46 73" id="as"/><g id="d"><use transform="matrix(0.05,0,0,0.05,0,0)" xlink:href="#aq"/><use transform="matrix(0.05,0,0,0.05,8.950000000000001,0)" xlink:href="#ar"/><use transform="matrix(0.05,0,0,0.05,18.950000000000003,0)" xlink:href="#as"/></g><path fill="#fff" d="M240 0l2-218c-23 76-54 145-80 218h-23L58-218 59 0H30v-248h44l77 211c21-75 51-140 76-211h43V0h-30" id="at"/><path fill="#fff" d="M117-194c89-4 53 116 60 194h-32v-121c0-31-8-49-39-48C34-167 62-67 57 0H25l-1-190h30c1 10-1 24 2 32 11-22 29-35 61-36" id="au"/><g id="e"><use transform="matrix(0.05,0,0,0.05,0,0)" xlink:href="#at"/><use transform="matrix(0.05,0,0,0.05,14.950000000000001,0)" xlink:href="#ar"/><use transform="matrix(0.05,0,0,0.05,24.950000000000003,0)" xlink:href="#au"/><use transform="matrix(0.05,0,0,0.05,34.95,0)" xlink:href="#ar"/><use transform="matrix(0.05,0,0,0.05,44.95,0)" xlink:href="#as"/><use transform="matrix(0.05,0,0,0.05,54.95,0)" xlink:href="#ap"/><use transform="matrix(0.05,0,0,0.05,64.95,0)" xlink:href="#al"/></g><path fill="#b2b2b2" d="M30-248c87 1 191-15 191 75 0 78-77 80-158 76V0H30v-248zm33 125c57 0 124 11 124-50 0-59-68-47-124-48v98" id="av"/><path fill="#b2b2b2" d="M141-36C126-15 110 5 73 4 37 3 15-17 15-53c-1-64 63-63 125-63 3-35-9-54-41-54-24 1-41 7-42 31l-33-3c5-37 33-52 76-52 45 0 72 20 72 64v82c-1 20 7 32 28 27v20c-31 9-61-2-59-35zM48-53c0 20 12 33 32 33 41-3 63-29 60-74-43 2-92-5-92 41" id="aw"/><path fill="#b2b2b2" d="M59-47c-2 24 18 29 38 22v24C64 9 27 4 27-40v-127H5v-23h24l9-43h21v43h35v23H59v120" id="ax"/><path fill="#b2b2b2" d="M114-163C36-179 61-72 57 0H25l-1-190h30c1 12-1 29 2 39 6-27 23-49 58-41v29" id="ay"/><path fill="#b2b2b2" d="M24-231v-30h32v30H24zM24 0v-190h32V0H24" id="az"/><path fill="#b2b2b2" d="M96-169c-40 0-48 33-48 73s9 75 48 75c24 0 41-14 43-38l32 2c-6 37-31 61-74 61-59 0-76-41-82-99-10-93 101-131 147-64 4 7 5 14 7 22l-32 3c-4-21-16-35-41-35" id="aA"/><path fill="#b2b2b2" d="M143 0L79-87 56-68V0H24v-261h32v163l83-92h37l-77 82L181 0h-38" id="aB"/><g id="f"><use transform="matrix(0.04320987654320988,0,0,0.04320987654320988,0,0)" xlink:href="#av"/><use transform="matrix(0.04320987654320988,0,0,0.04320987654320988,10.370370370370372,0)" xlink:href="#aw"/><use transform="matrix(0.04320987654320988,0,0,0.04320987654320988,19.01234567901235,0)" xlink:href="#ax"/><use transform="matrix(0.04320987654320988,0,0,0.04320987654320988,23.333333333333336,0)" xlink:href="#ay"/><use transform="matrix(0.04320987654320988,0,0,0.04320987654320988,28.47530864197531,0)" xlink:href="#az"/><use transform="matrix(0.04320987654320988,0,0,0.04320987654320988,31.888888888888893,0)" xlink:href="#aA"/><use transform="matrix(0.04320987654320988,0,0,0.04320987654320988,39.66666666666667,0)" xlink:href="#aB"/></g><path fill="#b2b2b2" d="M84 4C-5 8 30-112 23-190h32v120c0 31 7 50 39 49 72-2 45-101 50-169h31l1 190h-30c-1-10 1-25-2-33-11 22-28 36-60 37" id="aC"/><path fill="#b2b2b2" d="M135-143c-3-34-86-38-87 0 15 53 115 12 119 90S17 21 10-45l28-5c4 36 97 45 98 0-10-56-113-15-118-90-4-57 82-63 122-42 12 7 21 19 24 35" id="aD"/><path fill="#b2b2b2" d="M106-169C34-169 62-67 57 0H25v-261h32l-1 103c12-21 28-36 61-36 89 0 53 116 60 194h-32v-121c2-32-8-49-39-48" id="aE"/><path fill="#b2b2b2" d="M100-194c63 0 86 42 84 106H49c0 40 14 67 53 68 26 1 43-12 49-29l28 8c-11 28-37 45-77 45C44 4 14-33 15-96c1-61 26-98 85-98zm52 81c6-60-76-77-97-28-3 7-6 17-6 28h103" id="aF"/><g id="g"><use transform="matrix(0.04320987654320988,0,0,0.04320987654320988,0,0)" xlink:href="#av"/><use transform="matrix(0.04320987654320988,0,0,0.04320987654320988,10.370370370370372,0)" xlink:href="#aC"/><use transform="matrix(0.04320987654320988,0,0,0.04320987654320988,19.01234567901235,0)" xlink:href="#ay"/><use transform="matrix(0.04320987654320988,0,0,0.04320987654320988,24.154320987654323,0)" xlink:href="#az"/><use transform="matrix(0.04320987654320988,0,0,0.04320987654320988,27.567901234567906,0)" xlink:href="#ax"/><use transform="matrix(0.04320987654320988,0,0,0.04320987654320988,31.888888888888893,0)" xlink:href="#aD"/><use transform="matrix(0.04320987654320988,0,0,0.04320987654320988,39.66666666666667,0)" xlink:href="#aA"/><use transform="matrix(0.04320987654320988,0,0,0.04320987654320988,47.44444444444445,0)" xlink:href="#aE"/><use transform="matrix(0.04320987654320988,0,0,0.04320987654320988,56.086419753086425,0)" xlink:href="#aF"/><use transform="matrix(0.04320987654320988,0,0,0.04320987654320988,64.7283950617284,0)" xlink:href="#ay"/></g><path fill="#b2b2b2" d="M32 76v-337h29V76H32" id="aG"/><use transform="matrix(0.04320987654320988,0,0,0.04320987654320988,0,0)" xlink:href="#aG" id="h"/><path fill="#b2b2b2" d="M185-189c-5-48-123-54-124 2 14 75 158 14 163 119 3 78-121 87-175 55-17-10-28-26-33-46l33-7c5 56 141 63 141-1 0-78-155-14-162-118-5-82 145-84 179-34 5 7 8 16 11 25" id="aH"/><path fill="#b2b2b2" d="M115-194c55 1 70 41 70 98S169 2 115 4C84 4 66-9 55-30l1 105H24l-1-265h31l2 30c10-21 28-34 59-34zm-8 174c40 0 45-34 45-75s-6-73-45-74c-42 0-51 32-51 76 0 43 10 73 51 73" id="aI"/><path fill="#b2b2b2" d="M210-169c-67 3-38 105-44 169h-31v-121c0-29-5-50-35-48C34-165 62-65 56 0H25l-1-190h30c1 10-1 24 2 32 10-44 99-50 107 0 11-21 27-35 58-36 85-2 47 119 55 194h-31v-121c0-29-5-49-35-48" id="aJ"/><path fill="#b2b2b2" d="M115-194c53 0 69 39 70 98 0 66-23 100-70 100C84 3 66-7 56-30L54 0H23l1-261h32v101c10-23 28-34 59-34zm-8 174c40 0 45-34 45-75 0-40-5-75-45-74-42 0-51 32-51 76 0 43 10 73 51 73" id="aK"/><g id="i"><use transform="matrix(0.04320987654320988,0,0,0.04320987654320988,0,0)" xlink:href="#aH"/><use transform="matrix(0.04320987654320988,0,0,0.04320987654320988,10.370370370370372,0)" xlink:href="#aF"/><use transform="matrix(0.04320987654320988,0,0,0.04320987654320988,19.01234567901235,0)" xlink:href="#aI"/><use transform="matrix(0.04320987654320988,0,0,0.04320987654320988,27.654320987654323,0)" xlink:href="#ax"/><use transform="matrix(0.04320987654320988,0,0,0.04320987654320988,31.97530864197531,0)" xlink:href="#aF"/><use transform="matrix(0.04320987654320988,0,0,0.04320987654320988,40.617283950617285,0)" xlink:href="#aJ"/><use transform="matrix(0.04320987654320988,0,0,0.04320987654320988,53.537037037037045,0)" xlink:href="#aK"/><use transform="matrix(0.04320987654320988,0,0,0.04320987654320988,62.179012345679006,0)" xlink:href="#aF"/><use transform="matrix(0.04320987654320988,0,0,0.04320987654320988,70.82098765432099,0)" xlink:href="#ay"/></g><path fill="#b2b2b2" d="M110-160c48 1 74 30 74 79 0 53-28 85-80 85-65 0-83-55-86-122-5-90 50-162 133-122 14 7 22 21 27 39l-31 6c-5-40-67-38-82-6-9 19-15 44-15 74 11-20 30-34 60-33zm-7 138c34 0 49-23 49-58s-16-56-50-56c-29 0-50 16-49 49 1 36 15 65 50 65" id="aL"/><path fill="#b2b2b2" d="M68-38c1 34 0 65-14 84H32c9-13 17-26 17-46H33v-38h35" id="aM"/><g id="j"><use transform="matrix(0.04320987654320988,0,0,0.04320987654320988,0,0)" xlink:href="#aL"/><use transform="matrix(0.04320987654320988,0,0,0.04320987654320988,8.641975308641976,0)" xlink:href="#aM"/></g><path fill="#b2b2b2" d="M101-251c82-7 93 87 43 132L82-64C71-53 59-42 53-27h129V0H18c2-99 128-94 128-182 0-28-16-43-45-43s-46 15-49 41l-32-3c6-41 34-60 81-64" id="aN"/><path fill="#b2b2b2" d="M101-251c68 0 85 55 85 127S166 4 100 4C33 4 14-52 14-124c0-73 17-127 87-127zm-1 229c47 0 54-49 54-102s-4-102-53-102c-51 0-55 48-55 102 0 53 5 102 54 102" id="aO"/><path fill="#b2b2b2" d="M27 0v-27h64v-190l-56 39v-29l58-41h29v221h61V0H27" id="aP"/><g id="k"><use transform="matrix(0.04320987654320988,0,0,0.04320987654320988,0,0)" xlink:href="#aN"/><use transform="matrix(0.04320987654320988,0,0,0.04320987654320988,8.641975308641976,0)" xlink:href="#aO"/><use transform="matrix(0.04320987654320988,0,0,0.04320987654320988,17.283950617283953,0)" xlink:href="#aN"/><use transform="matrix(0.04320987654320988,0,0,0.04320987654320988,25.925925925925927,0)" xlink:href="#aP"/></g><path fill="#fff" d="M233-177c-1 41-23 64-60 70L243 0h-38l-65-103H63V0H30v-248c88 3 205-21 203 71zM63-129c60-2 137 13 137-47 0-61-80-42-137-45v92" id="aQ"/><path fill="#fff" d="M145-31C134-9 116 4 85 4 32 4 16-35 15-94c0-59 17-99 70-100 32-1 48 14 60 33 0-11-1-24 2-32h30l-1 268h-32zM93-21c41 0 51-33 51-76s-8-73-50-73c-40 0-46 35-46 75s5 74 45 74" id="aR"/><path fill="#fff" d="M84 4C-5 8 30-112 23-190h32v120c0 31 7 50 39 49 72-2 45-101 50-169h31l1 190h-30c-1-10 1-25-2-33-11 22-28 36-60 37" id="aS"/><g id="l"><use transform="matrix(0.050063688677604884,0,0,0.050063688677604884,0,0)" xlink:href="#aQ"/><use transform="matrix(0.050063688677604884,0,0,0.050063688677604884,12.966495367499665,0)" xlink:href="#ap"/><use transform="matrix(0.050063688677604884,0,0,0.050063688677604884,22.97923310302064,0)" xlink:href="#aR"/><use transform="matrix(0.050063688677604884,0,0,0.050063688677604884,32.99197083854162,0)" xlink:href="#aS"/><use transform="matrix(0.050063688677604884,0,0,0.050063688677604884,43.0047085740626,0)" xlink:href="#ap"/><use transform="matrix(0.050063688677604884,0,0,0.050063688677604884,53.01744630958357,0)" xlink:href="#ai"/><use transform="matrix(0.050063688677604884,0,0,0.050063688677604884,62.02891027155245,0)" xlink:href="#aj"/></g><path fill="#fff" d="M266 0h-40l-56-210L115 0H75L2-248h35L96-30l15-64 43-154h32l59 218 59-218h35" id="aT"/><path fill="#fff" d="M115-194c53 0 69 39 70 98 0 66-23 100-70 100C84 3 66-7 56-30L54 0H23l1-261h32v101c10-23 28-34 59-34zm-8 174c40 0 45-34 45-75 0-40-5-75-45-74-42 0-51 32-51 76 0 43 10 73 51 73" id="aU"/><path fill="#fff" d="M115-194c55 1 70 41 70 98S169 2 115 4C84 4 66-9 55-30l1 105H24l-1-265h31l2 30c10-21 28-34 59-34zm-8 174c40 0 45-34 45-75s-6-73-45-74c-42 0-51 32-51 76 0 43 10 73 51 73" id="aV"/><g id="m"><use transform="matrix(0.050063688677604884,0,0,0.050063688677604884,0,0)" xlink:href="#aT"/><use transform="matrix(0.050063688677604884,0,0,0.050063688677604884,16.62114464096482,0)" xlink:href="#ap"/><use transform="matrix(0.050063688677604884,0,0,0.050063688677604884,26.633882376485793,0)" xlink:href="#aU"/><use transform="matrix(0.050063688677604884,0,0,0.050063688677604884,36.64662011200677,0)" xlink:href="#aV"/><use transform="matrix(0.050063688677604884,0,0,0.050063688677604884,46.65935784752775,0)" xlink:href="#ar"/><use transform="matrix(0.050063688677604884,0,0,0.050063688677604884,56.67209558304873,0)" xlink:href="#as"/><use transform="matrix(0.050063688677604884,0,0,0.050063688677604884,66.6848333185697,0)" xlink:href="#ap"/></g><path fill="#fff" d="M212-179c-10-28-35-45-73-45-59 0-87 40-87 99 0 60 29 101 89 101 43 0 62-24 78-52l27 14C228-24 195 4 139 4 59 4 22-46 18-125c-6-104 99-153 187-111 19 9 31 26 39 46" id="aW"/><path fill="#fff" d="M106-169C34-169 62-67 57 0H25v-261h32l-1 103c12-21 28-36 61-36 89 0 53 116 60 194h-32v-121c2-32-8-49-39-48" id="aX"/><path fill="#fff" d="M96-169c-40 0-48 33-48 73s9 75 48 75c24 0 41-14 43-38l32 2c-6 37-31 61-74 61-59 0-76-41-82-99-10-93 101-131 147-64 4 7 5 14 7 22l-32 3c-4-21-16-35-41-35" id="aY"/><path fill="#fff" d="M143 0L79-87 56-68V0H24v-261h32v163l83-92h37l-77 82L181 0h-38" id="aZ"/><g id="n"><use transform="matrix(0.050063688677604884,0,0,0.050063688677604884,0,0)" xlink:href="#aW"/><use transform="matrix(0.050063688677604884,0,0,0.050063688677604884,12.966495367499665,0)" xlink:href="#aX"/><use transform="matrix(0.050063688677604884,0,0,0.050063688677604884,22.97923310302064,0)" xlink:href="#ap"/><use transform="matrix(0.050063688677604884,0,0,0.050063688677604884,32.99197083854162,0)" xlink:href="#aY"/><use transform="matrix(0.050063688677604884,0,0,0.050063688677604884,42.0034348005105,0)" xlink:href="#aZ"/></g><path fill="#fff" d="M101-234c-31-9-42 10-38 44h38v23H63V0H32v-167H5v-23h27c-7-52 17-82 69-68v24" id="ba"/><g id="o"><use transform="matrix(0.050063688677604884,0,0,0.050063688677604884,0,0)" xlink:href="#ah"/><use transform="matrix(0.050063688677604884,0,0,0.050063688677604884,3.955031405530786,0)" xlink:href="#ba"/></g><g id="p"><use transform="matrix(0.050063688677604884,0,0,0.050063688677604884,0,0)" xlink:href="#aY"/><use transform="matrix(0.050063688677604884,0,0,0.050063688677604884,9.011463961968879,0)" xlink:href="#ak"/><use transform="matrix(0.050063688677604884,0,0,0.050063688677604884,19.024201697489858,0)" xlink:href="#ak"/><use transform="matrix(0.050063688677604884,0,0,0.050063688677604884,29.03693943301084,0)" xlink:href="#aZ"/><use transform="matrix(0.050063688677604884,0,0,0.050063688677604884,38.048403394979715,0)" xlink:href="#ah"/><use transform="matrix(0.050063688677604884,0,0,0.050063688677604884,42.003434800510504,0)" xlink:href="#ap"/></g><g id="q"><use transform="matrix(0.050063688677604884,0,0,0.050063688677604884,0,0)" xlink:href="#ba"/><use transform="matrix(0.050063688677604884,0,0,0.050063688677604884,5.0063688677604885,0)" xlink:href="#ak"/><use transform="matrix(0.050063688677604884,0,0,0.050063688677604884,15.019106603281465,0)" xlink:href="#al"/></g><g id="r"><use transform="matrix(0.050063688677604884,0,0,0.050063688677604884,0,0)" xlink:href="#aY"/><use transform="matrix(0.050063688677604884,0,0,0.050063688677604884,9.011463961968879,0)" xlink:href="#ak"/><use transform="matrix(0.050063688677604884,0,0,0.050063688677604884,19.024201697489858,0)" xlink:href="#au"/><use transform="matrix(0.050063688677604884,0,0,0.050063688677604884,29.03693943301084,0)" xlink:href="#ai"/><use transform="matrix(0.050063688677604884,0,0,0.050063688677604884,38.048403394979715,0)" xlink:href="#ap"/><use transform="matrix(0.050063688677604884,0,0,0.050063688677604884,48.061141130500694,0)" xlink:href="#au"/><use transform="matrix(0.050063688677604884,0,0,0.050063688677604884,58.07387886602168,0)" xlink:href="#aj"/></g><g id="s"><use transform="matrix(0.050063688677604884,0,0,0.050063688677604884,0,0)" xlink:href="#ah"/><use transform="matrix(0.050063688677604884,0,0,0.050063688677604884,3.955031405530786,0)" xlink:href="#ai"/></g><g id="t"><use transform="matrix(0.050063688677604884,0,0,0.050063688677604884,0,0)" xlink:href="#ai"/><use transform="matrix(0.050063688677604884,0,0,0.050063688677604884,9.011463961968879,0)" xlink:href="#ap"/><use transform="matrix(0.050063688677604884,0,0,0.050063688677604884,19.024201697489858,0)" xlink:href="#aj"/></g><path d="M137-103V0h-34v-103L8-248h37l75 118 75-118h37" id="bb"/><path d="M100-194c63 0 86 42 84 106H49c0 40 14 67 53 68 26 1 43-12 49-29l28 8c-11 28-37 45-77 45C44 4 14-33 15-96c1-61 26-98 85-98zm52 81c6-60-76-77-97-28-3 7-6 17-6 28h103" id="bc"/><path d="M135-143c-3-34-86-38-87 0 15 53 115 12 119 90S17 21 10-45l28-5c4 36 97 45 98 0-10-56-113-15-118-90-4-57 82-63 122-42 12 7 21 19 24 35" id="bd"/><g id="u"><use transform="matrix(0.050063688677604884,0,0,0.050063688677604884,0,0)" xlink:href="#bb"/><use transform="matrix(0.050063688677604884,0,0,0.050063688677604884,10.363183556264211,0)" xlink:href="#bc"/><use transform="matrix(0.050063688677604884,0,0,0.050063688677604884,20.37592129178519,0)" xlink:href="#bd"/></g><path d="M109-170H84l-4-78h32zm-65 0H19l-4-78h33" id="be"/><path d="M141-36C126-15 110 5 73 4 37 3 15-17 15-53c-1-64 63-63 125-63 3-35-9-54-41-54-24 1-41 7-42 31l-33-3c5-37 33-52 76-52 45 0 72 20 72 64v82c-1 20 7 32 28 27v20c-31 9-61-2-59-35zM48-53c0 20 12 33 32 33 41-3 63-29 60-74-43 2-92-5-92 41" id="bf"/><path d="M117-194c89-4 53 116 60 194h-32v-121c0-31-8-49-39-48C34-167 62-67 57 0H25l-1-190h30c1 10-1 24 2 32 11-22 29-35 61-36" id="bg"/><path d="M24 0v-261h32V0H24" id="bh"/><path d="M179-190L93 31C79 59 56 82 12 73V49c39 6 53-20 64-50L1-190h34L92-34l54-156h33" id="bi"/><path d="M59-47c-2 24 18 29 38 22v24C64 9 27 4 27-40v-127H5v-23h24l9-43h21v43h35v23H59v120" id="bj"/><path d="M24-231v-30h32v30H24zM24 0v-190h32V0H24" id="bk"/><path d="M96-169c-40 0-48 33-48 73s9 75 48 75c24 0 41-14 43-38l32 2c-6 37-31 61-74 61-59 0-76-41-82-99-10-93 101-131 147-64 4 7 5 14 7 22l-32 3c-4-21-16-35-41-35" id="bl"/><g id="v"><use transform="matrix(0.050063688677604884,0,0,0.050063688677604884,0,0)" xlink:href="#be"/><use transform="matrix(0.050063688677604884,0,0,0.050063688677604884,6.358088462055821,0)" xlink:href="#bf"/><use transform="matrix(0.050063688677604884,0,0,0.050063688677604884,16.370826197576797,0)" xlink:href="#bg"/><use transform="matrix(0.050063688677604884,0,0,0.050063688677604884,26.383563933097776,0)" xlink:href="#bf"/><use transform="matrix(0.050063688677604884,0,0,0.050063688677604884,36.396301668618754,0)" xlink:href="#bh"/><use transform="matrix(0.050063688677604884,0,0,0.050063688677604884,40.35133307414954,0)" xlink:href="#bi"/><use transform="matrix(0.050063688677604884,0,0,0.050063688677604884,49.362797036118415,0)" xlink:href="#bj"/><use transform="matrix(0.050063688677604884,0,0,0.050063688677604884,54.3691659038789,0)" xlink:href="#bk"/><use transform="matrix(0.050063688677604884,0,0,0.050063688677604884,58.324197309409676,0)" xlink:href="#bl"/><use transform="matrix(0.050063688677604884,0,0,0.050063688677604884,67.33566127137857,0)" xlink:href="#bd"/><use transform="matrix(0.050063688677604884,0,0,0.050063688677604884,76.34712523334744,0)" xlink:href="#be"/></g><path fill="#fff" d="M63-220v92h138v28H63V0H30v-248h175v28H63" id="bm"/><path fill="#fff" d="M85-194c31 0 48 13 60 33l-1-100h32l1 261h-30c-2-10 0-23-3-31C134-8 116 4 85 4 32 4 16-35 15-94c0-66 23-100 70-100zm9 24c-40 0-46 34-46 75 0 40 6 74 45 74 42 0 51-32 51-76 0-42-9-74-50-73" id="bn"/><g id="w"><use transform="matrix(0.050063688677604884,0,0,0.050063688677604884,0,0)" xlink:href="#bm"/><use transform="matrix(0.050063688677604884,0,0,0.050063688677604884,10.96394782039547,0)" xlink:href="#ak"/><use transform="matrix(0.050063688677604884,0,0,0.050063688677604884,20.976685555916447,0)" xlink:href="#al"/><use transform="matrix(0.050063688677604884,0,0,0.050063688677604884,26.93426450855143,0)" xlink:href="#ao"/><use transform="matrix(0.050063688677604884,0,0,0.050063688677604884,39.9007598760511,0)" xlink:href="#ar"/><use transform="matrix(0.050063688677604884,0,0,0.050063688677604884,49.913497611572076,0)" xlink:href="#al"/><use transform="matrix(0.050063688677604884,0,0,0.050063688677604884,55.87107656420706,0)" xlink:href="#bn"/></g><path fill="#fff" d="M108 0H70L1-190h34L89-25l56-165h34" id="bo"/><g id="x"><use transform="matrix(0.050063688677604884,0,0,0.050063688677604884,0,0)" xlink:href="#ap"/><use transform="matrix(0.050063688677604884,0,0,0.050063688677604884,10.012737735520977,0)" xlink:href="#bo"/><use transform="matrix(0.050063688677604884,0,0,0.050063688677604884,19.024201697489858,0)" xlink:href="#ap"/><use transform="matrix(0.050063688677604884,0,0,0.050063688677604884,29.03693943301084,0)" xlink:href="#au"/><use transform="matrix(0.050063688677604884,0,0,0.050063688677604884,39.049677168531815,0)" xlink:href="#aj"/><use transform="matrix(0.050063688677604884,0,0,0.050063688677604884,44.0560460362923,0)" xlink:href="#ai"/></g><g id="y"><use transform="matrix(0.050063688677604884,0,0,0.050063688677604884,0,0)" xlink:href="#aj"/><use transform="matrix(0.050063688677604884,0,0,0.050063688677604884,5.0063688677604885,0)" xlink:href="#ak"/></g><path fill="#fff" d="M205 0l-28-72H64L36 0H1l101-248h38L239 0h-34zm-38-99l-47-123c-12 45-31 82-46 123h93" id="bp"/><path fill="#fff" d="M24 0v-261h32V0H24" id="bq"/><path fill="#fff" d="M179-190L93 31C79 59 56 82 12 73V49c39 6 53-20 64-50L1-190h34L92-34l54-156h33" id="br"/><g id="z"><use transform="matrix(0.050063688677604884,0,0,0.050063688677604884,0,0)" xlink:href="#bp"/><use transform="matrix(0.050063688677604884,0,0,0.050063688677604884,12.015285282625172,0)" xlink:href="#au"/><use transform="matrix(0.050063688677604884,0,0,0.050063688677604884,22.02802301814615,0)" xlink:href="#ar"/><use transform="matrix(0.050063688677604884,0,0,0.050063688677604884,32.04076075366713,0)" xlink:href="#bq"/><use transform="matrix(0.050063688677604884,0,0,0.050063688677604884,35.99579215919792,0)" xlink:href="#br"/><use transform="matrix(0.050063688677604884,0,0,0.050063688677604884,45.0072561211668,0)" xlink:href="#aj"/><use transform="matrix(0.050063688677604884,0,0,0.050063688677604884,50.01362498892728,0)" xlink:href="#ah"/><use transform="matrix(0.050063688677604884,0,0,0.050063688677604884,53.968656394458066,0)" xlink:href="#aY"/><use transform="matrix(0.050063688677604884,0,0,0.050063688677604884,62.980120356426944,0)" xlink:href="#ai"/></g><path fill="#fff" d="M185-189c-5-48-123-54-124 2 14 75 158 14 163 119 3 78-121 87-175 55-17-10-28-26-33-46l33-7c5 56 141 63 141-1 0-78-155-14-162-118-5-82 145-84 179-34 5 7 8 16 11 25" id="bs"/><g id="A"><use transform="matrix(0.050063688677604884,0,0,0.050063688677604884,0,0)" xlink:href="#bs"/><use transform="matrix(0.050063688677604884,0,0,0.050063688677604884,12.015285282625172,0)" xlink:href="#ap"/><use transform="matrix(0.050063688677604884,0,0,0.050063688677604884,22.02802301814615,0)" xlink:href="#al"/><use transform="matrix(0.050063688677604884,0,0,0.050063688677604884,27.98560197078113,0)" xlink:href="#bo"/><use transform="matrix(0.050063688677604884,0,0,0.050063688677604884,36.99706593275001,0)" xlink:href="#ah"/><use transform="matrix(0.050063688677604884,0,0,0.050063688677604884,40.952097338280794,0)" xlink:href="#aY"/><use transform="matrix(0.050063688677604884,0,0,0.050063688677604884,49.96356130024967,0)" xlink:href="#ap"/><use transform="matrix(0.050063688677604884,0,0,0.050063688677604884,59.97629903577065,0)" xlink:href="#ai"/></g><path d="M190 0L58-211 59 0H30v-248h39L202-35l-2-213h31V0h-41" id="bt"/><path d="M100-194c62-1 85 37 85 99 1 63-27 99-86 99S16-35 15-95c0-66 28-99 85-99zM99-20c44 1 53-31 53-75 0-43-8-75-51-75s-53 32-53 75 10 74 51 75" id="bu"/><g id="B"><use transform="matrix(0.050063688677604884,0,0,0.050063688677604884,0,0)" xlink:href="#bt"/><use transform="matrix(0.050063688677604884,0,0,0.050063688677604884,12.966495367499665,0)" xlink:href="#bu"/></g><path fill="#fff" d="M30-248c118-7 216 8 213 122C240-48 200 0 122 0H30v-248zM63-27c89 8 146-16 146-99s-60-101-146-95v194" id="bv"/><g id="C"><use transform="matrix(0.050063688677604884,0,0,0.050063688677604884,0,0)" xlink:href="#bv"/><use transform="matrix(0.050063688677604884,0,0,0.050063688677604884,12.966495367499665,0)" xlink:href="#ak"/></g><g id="D"><use transform="matrix(0.050063688677604884,0,0,0.050063688677604884,0,0)" xlink:href="#au"/><use transform="matrix(0.050063688677604884,0,0,0.050063688677604884,10.012737735520977,0)" xlink:href="#ak"/><use transform="matrix(0.050063688677604884,0,0,0.050063688677604884,20.025475471041954,0)" xlink:href="#aj"/><use transform="matrix(0.050063688677604884,0,0,0.050063688677604884,25.031844338802443,0)" xlink:href="#aX"/><use transform="matrix(0.050063688677604884,0,0,0.050063688677604884,35.04458207432342,0)" xlink:href="#ah"/><use transform="matrix(0.050063688677604884,0,0,0.050063688677604884,38.999613479854204,0)" xlink:href="#au"/><use transform="matrix(0.050063688677604884,0,0,0.050063688677604884,49.01235121537518,0)" xlink:href="#as"/></g><path d="M210-169c-67 3-38 105-44 169h-31v-121c0-29-5-50-35-48C34-165 62-65 56 0H25l-1-190h30c1 10-1 24 2 32 10-44 99-50 107 0 11-21 27-35 58-36 85-2 47 119 55 194h-31v-121c0-29-5-49-35-48" id="bw"/><path d="M114-163C36-179 61-72 57 0H25l-1-190h30c1 12-1 29 2 39 6-27 23-49 58-41v29" id="bx"/><path d="M143 0L79-87 56-68V0H24v-261h32v163l83-92h37l-77 82L181 0h-38" id="by"/><path d="M177-190C167-65 218 103 67 71c-23-6-38-20-44-43l32-5c15 47 100 32 89-28v-30C133-14 115 1 83 1 29 1 15-40 15-95c0-56 16-97 71-98 29-1 48 16 59 35 1-10 0-23 2-32h30zM94-22c36 0 50-32 50-73 0-42-14-75-50-75-39 0-46 34-46 75s6 73 46 73" id="bz"/><g id="E"><use transform="matrix(0.050063688677604884,0,0,0.050063688677604884,0,0)" xlink:href="#be"/><use transform="matrix(0.050063688677604884,0,0,0.050063688677604884,6.358088462055821,0)" xlink:href="#bw"/><use transform="matrix(0.050063688677604884,0,0,0.050063688677604884,21.327131376659683,0)" xlink:href="#bf"/><use transform="matrix(0.050063688677604884,0,0,0.050063688677604884,31.339869112180658,0)" xlink:href="#bx"/><use transform="matrix(0.050063688677604884,0,0,0.050063688677604884,37.29744806481564,0)" xlink:href="#by"/><use transform="matrix(0.050063688677604884,0,0,0.050063688677604884,46.30891202678452,0)" xlink:href="#bc"/><use transform="matrix(0.050063688677604884,0,0,0.050063688677604884,56.3216497623055,0)" xlink:href="#bj"/><use transform="matrix(0.050063688677604884,0,0,0.050063688677604884,61.32801863006598,0)" xlink:href="#bk"/><use transform="matrix(0.050063688677604884,0,0,0.050063688677604884,65.28305003559677,0)" xlink:href="#bg"/><use transform="matrix(0.050063688677604884,0,0,0.050063688677604884,75.29578777111774,0)" xlink:href="#bz"/><use transform="matrix(0.050063688677604884,0,0,0.050063688677604884,85.30852550663872,0)" xlink:href="#be"/></g><g id="F"><use transform="matrix(0.050063688677604884,0,0,0.050063688677604884,0,0)" xlink:href="#aW"/><use transform="matrix(0.050063688677604884,0,0,0.050063688677604884,12.966495367499665,0)" xlink:href="#ak"/><use transform="matrix(0.050063688677604884,0,0,0.050063688677604884,22.97923310302064,0)" xlink:href="#ak"/><use transform="matrix(0.050063688677604884,0,0,0.050063688677604884,32.99197083854162,0)" xlink:href="#aZ"/><use transform="matrix(0.050063688677604884,0,0,0.050063688677604884,42.0034348005105,0)" xlink:href="#ah"/><use transform="matrix(0.050063688677604884,0,0,0.050063688677604884,45.95846620604128,0)" xlink:href="#ap"/></g><g id="G"><use transform="matrix(0.050063688677604884,0,0,0.050063688677604884,0,0)" xlink:href="#ba"/><use transform="matrix(0.050063688677604884,0,0,0.050063688677604884,5.0063688677604885,0)" xlink:href="#ak"/><use transform="matrix(0.050063688677604884,0,0,0.050063688677604884,15.019106603281465,0)" xlink:href="#al"/></g><g id="H"><use transform="matrix(0.050063688677604884,0,0,0.050063688677604884,0,0)" xlink:href="#aY"/><use transform="matrix(0.050063688677604884,0,0,0.050063688677604884,9.011463961968879,0)" xlink:href="#ak"/><use transform="matrix(0.050063688677604884,0,0,0.050063688677604884,19.024201697489858,0)" xlink:href="#au"/><use transform="matrix(0.050063688677604884,0,0,0.050063688677604884,29.03693943301084,0)" xlink:href="#ai"/><use transform="matrix(0.050063688677604884,0,0,0.050063688677604884,38.048403394979715,0)" xlink:href="#ap"/><use transform="matrix(0.050063688677604884,0,0,0.050063688677604884,48.061141130500694,0)" xlink:href="#au"/><use transform="matrix(0.050063688677604884,0,0,0.050063688677604884,58.07387886602168,0)" xlink:href="#aj"/></g><path fill="#fff" d="M103-251c84 0 111 97 45 133-19 10-37 24-39 52H78c0-63 77-55 77-114 0-30-21-42-52-43-32 0-53 17-56 46l-32-2c7-45 34-72 88-72zM77 0v-35h34V0H77" id="bA"/><g id="I"><use transform="matrix(0.050063688677604884,0,0,0.050063688677604884,0,0)" xlink:href="#ai"/><use transform="matrix(0.050063688677604884,0,0,0.050063688677604884,9.011463961968879,0)" xlink:href="#ap"/><use transform="matrix(0.050063688677604884,0,0,0.050063688677604884,19.024201697489858,0)" xlink:href="#aj"/><use transform="matrix(0.050063688677604884,0,0,0.050063688677604884,24.030570565250347,0)" xlink:href="#bA"/></g><g id="J"><use transform="matrix(0.050063688677604884,0,0,0.050063688677604884,0,0)" xlink:href="#bb"/><use transform="matrix(0.050063688677604884,0,0,0.050063688677604884,10.363183556264211,0)" xlink:href="#bc"/><use transform="matrix(0.050063688677604884,0,0,0.050063688677604884,20.37592129178519,0)" xlink:href="#bd"/></g><path fill="#fff" d="M197 0v-115H63V0H30v-248h33v105h134v-105h34V0h-34" id="bB"/><g id="K"><use transform="matrix(0.050063688677604884,0,0,0.050063688677604884,0,0)" xlink:href="#bB"/><use transform="matrix(0.050063688677604884,0,0,0.050063688677604884,12.966495367499665,0)" xlink:href="#ah"/><use transform="matrix(0.050063688677604884,0,0,0.050063688677604884,16.92152677303045,0)" xlink:href="#bn"/><use transform="matrix(0.050063688677604884,0,0,0.050063688677604884,26.93426450855143,0)" xlink:href="#ap"/></g><g id="L"><use transform="matrix(0.050063688677604884,0,0,0.050063688677604884,0,0)" xlink:href="#al"/><use transform="matrix(0.050063688677604884,0,0,0.050063688677604884,5.957578952634981,0)" xlink:href="#ap"/><use transform="matrix(0.050063688677604884,0,0,0.050063688677604884,15.970316688155958,0)" xlink:href="#aR"/><use transform="matrix(0.050063688677604884,0,0,0.050063688677604884,25.983054423676936,0)" xlink:href="#aS"/><use transform="matrix(0.050063688677604884,0,0,0.050063688677604884,35.99579215919791,0)" xlink:href="#ap"/><use transform="matrix(0.050063688677604884,0,0,0.050063688677604884,46.00852989471889,0)" xlink:href="#ai"/><use transform="matrix(0.050063688677604884,0,0,0.050063688677604884,55.01999385668777,0)" xlink:href="#aj"/></g><g id="M"><use transform="matrix(0.050063688677604884,0,0,0.050063688677604884,0,0)" xlink:href="#aU"/><use transform="matrix(0.050063688677604884,0,0,0.050063688677604884,10.012737735520977,0)" xlink:href="#ar"/><use transform="matrix(0.050063688677604884,0,0,0.050063688677604884,20.025475471041954,0)" xlink:href="#au"/><use transform="matrix(0.050063688677604884,0,0,0.050063688677604884,30.03821320656293,0)" xlink:href="#au"/><use transform="matrix(0.050063688677604884,0,0,0.050063688677604884,40.05095094208391,0)" xlink:href="#ap"/><use transform="matrix(0.050063688677604884,0,0,0.050063688677604884,50.06368867760489,0)" xlink:href="#al"/></g><path fill="#fff" d="M232-93c-1 65-40 97-104 97C67 4 28-28 28-90v-158h33c8 89-33 224 67 224 102 0 64-133 71-224h33v155" id="bC"/><g id="N"><use transform="matrix(0.050063688677604884,0,0,0.050063688677604884,0,0)" xlink:href="#bC"/><use transform="matrix(0.050063688677604884,0,0,0.050063688677604884,12.966495367499665,0)" xlink:href="#aV"/><use transform="matrix(0.050063688677604884,0,0,0.050063688677604884,22.97923310302064,0)" xlink:href="#bn"/><use transform="matrix(0.050063688677604884,0,0,0.050063688677604884,32.99197083854162,0)" xlink:href="#ar"/><use transform="matrix(0.050063688677604884,0,0,0.050063688677604884,43.0047085740626,0)" xlink:href="#aj"/><use transform="matrix(0.050063688677604884,0,0,0.050063688677604884,48.01107744182308,0)" xlink:href="#ap"/></g><g id="O"><use transform="matrix(0.050063688677604884,0,0,0.050063688677604884,0,0)" xlink:href="#aV"/><use transform="matrix(0.050063688677604884,0,0,0.050063688677604884,10.012737735520977,0)" xlink:href="#al"/><use transform="matrix(0.050063688677604884,0,0,0.050063688677604884,15.970316688155958,0)" xlink:href="#ap"/><use transform="matrix(0.050063688677604884,0,0,0.050063688677604884,25.983054423676936,0)" xlink:href="#ba"/><use transform="matrix(0.050063688677604884,0,0,0.050063688677604884,30.989423291437422,0)" xlink:href="#ap"/><use transform="matrix(0.050063688677604884,0,0,0.050063688677604884,41.0021610269584,0)" xlink:href="#al"/><use transform="matrix(0.050063688677604884,0,0,0.050063688677604884,46.95973997959338,0)" xlink:href="#ap"/><use transform="matrix(0.050063688677604884,0,0,0.050063688677604884,56.97247771511436,0)" xlink:href="#au"/><use transform="matrix(0.050063688677604884,0,0,0.050063688677604884,66.98521545063534,0)" xlink:href="#aY"/><use transform="matrix(0.050063688677604884,0,0,0.050063688677604884,75.99667941260421,0)" xlink:href="#ap"/><use transform="matrix(0.050063688677604884,0,0,0.050063688677604884,86.00941714812518,0)" xlink:href="#ai"/></g><g id="P"><use transform="matrix(0.050063688677604884,0,0,0.050063688677604884,0,0)" xlink:href="#bs"/><use transform="matrix(0.050063688677604884,0,0,0.050063688677604884,12.015285282625172,0)" xlink:href="#ap"/><use transform="matrix(0.050063688677604884,0,0,0.050063688677604884,22.02802301814615,0)" xlink:href="#aj"/></g><g id="Q"><use transform="matrix(0.050063688677604884,0,0,0.050063688677604884,0,0)" xlink:href="#aY"/><use transform="matrix(0.050063688677604884,0,0,0.050063688677604884,9.011463961968879,0)" xlink:href="#ak"/><use transform="matrix(0.050063688677604884,0,0,0.050063688677604884,19.024201697489858,0)" xlink:href="#au"/><use transform="matrix(0.050063688677604884,0,0,0.050063688677604884,29.03693943301084,0)" xlink:href="#ai"/><use transform="matrix(0.050063688677604884,0,0,0.050063688677604884,38.048403394979715,0)" xlink:href="#ap"/><use transform="matrix(0.050063688677604884,0,0,0.050063688677604884,48.061141130500694,0)" xlink:href="#au"/><use transform="matrix(0.050063688677604884,0,0,0.050063688677604884,58.07387886602168,0)" xlink:href="#aj"/></g><path fill="#fff" d="M30 0v-248h187v28H63v79h144v27H63v87h162V0H30" id="bD"/><path fill="#fff" d="M210-169c-67 3-38 105-44 169h-31v-121c0-29-5-50-35-48C34-165 62-65 56 0H25l-1-190h30c1 10-1 24 2 32 10-44 99-50 107 0 11-21 27-35 58-36 85-2 47 119 55 194h-31v-121c0-29-5-49-35-48" id="bE"/><g id="R"><use transform="matrix(0.050063688677604884,0,0,0.050063688677604884,0,0)" xlink:href="#bD"/><use transform="matrix(0.050063688677604884,0,0,0.050063688677604884,12.015285282625172,0)" xlink:href="#bE"/><use transform="matrix(0.050063688677604884,0,0,0.050063688677604884,26.984328197229033,0)" xlink:href="#aU"/><use transform="matrix(0.050063688677604884,0,0,0.050063688677604884,36.99706593275001,0)" xlink:href="#ap"/><use transform="matrix(0.050063688677604884,0,0,0.050063688677604884,47.00980366827099,0)" xlink:href="#bn"/></g><g id="S"><use transform="matrix(0.050063688677604884,0,0,0.050063688677604884,0,0)" xlink:href="#at"/><use transform="matrix(0.050063688677604884,0,0,0.050063688677604884,14.969042914603861,0)" xlink:href="#ar"/><use transform="matrix(0.050063688677604884,0,0,0.050063688677604884,24.98178065012484,0)" xlink:href="#al"/><use transform="matrix(0.050063688677604884,0,0,0.050063688677604884,30.939359602759826,0)" xlink:href="#aZ"/><use transform="matrix(0.050063688677604884,0,0,0.050063688677604884,39.9508235647287,0)" xlink:href="#ap"/><use transform="matrix(0.050063688677604884,0,0,0.050063688677604884,49.96356130024968,0)" xlink:href="#aj"/><use transform="matrix(0.050063688677604884,0,0,0.050063688677604884,54.969930168010166,0)" xlink:href="#ah"/><use transform="matrix(0.050063688677604884,0,0,0.050063688677604884,58.92496157354096,0)" xlink:href="#au"/><use transform="matrix(0.050063688677604884,0,0,0.050063688677604884,68.93769930906193,0)" xlink:href="#as"/></g><path fill="#fff" d="M30-248c87 1 191-15 191 75 0 78-77 80-158 76V0H30v-248zm33 125c57 0 124 11 124-50 0-59-68-47-124-48v98" id="bF"/><path fill="#fff" d="M141 0L90-78 38 0H4l68-98-65-92h35l48 74 47-74h35l-64 92 68 98h-35" id="bG"/><g id="T"><use transform="matrix(0.050063688677604884,0,0,0.050063688677604884,0,0)" xlink:href="#bF"/><use transform="matrix(0.050063688677604884,0,0,0.050063688677604884,12.015285282625172,0)" xlink:href="#ah"/><use transform="matrix(0.050063688677604884,0,0,0.050063688677604884,15.970316688155958,0)" xlink:href="#bG"/><use transform="matrix(0.050063688677604884,0,0,0.050063688677604884,24.981780650124836,0)" xlink:href="#ap"/><use transform="matrix(0.050063688677604884,0,0,0.050063688677604884,34.99451838564581,0)" xlink:href="#bq"/></g><g id="U"><use transform="matrix(0.050063688677604884,0,0,0.050063688677604884,0,0)" xlink:href="#ak"/><use transform="matrix(0.050063688677604884,0,0,0.050063688677604884,10.012737735520977,0)" xlink:href="#au"/></g><g id="V"><use transform="matrix(0.050063688677604884,0,0,0.050063688677604884,0,0)" xlink:href="#ao"/><use transform="matrix(0.050063688677604884,0,0,0.050063688677604884,12.966495367499665,0)" xlink:href="#ap"/><use transform="matrix(0.050063688677604884,0,0,0.050063688677604884,22.97923310302064,0)" xlink:href="#aU"/><use transform="matrix(0.050063688677604884,0,0,0.050063688677604884,32.99197083854162,0)" xlink:href="#aV"/><use transform="matrix(0.050063688677604884,0,0,0.050063688677604884,43.0047085740626,0)" xlink:href="#ar"/><use transform="matrix(0.050063688677604884,0,0,0.050063688677604884,53.01744630958357,0)" xlink:href="#as"/><use transform="matrix(0.050063688677604884,0,0,0.050063688677604884,63.03018404510456,0)" xlink:href="#ap"/></g><g id="W"><use transform="matrix(0.050063688677604884,0,0,0.050063688677604884,0,0)" xlink:href="#at"/><use transform="matrix(0.050063688677604884,0,0,0.050063688677604884,14.969042914603861,0)" xlink:href="#ar"/><use transform="matrix(0.050063688677604884,0,0,0.050063688677604884,24.98178065012484,0)" xlink:href="#al"/><use transform="matrix(0.050063688677604884,0,0,0.050063688677604884,30.939359602759826,0)" xlink:href="#aZ"/><use transform="matrix(0.050063688677604884,0,0,0.050063688677604884,39.9508235647287,0)" xlink:href="#ap"/><use transform="matrix(0.050063688677604884,0,0,0.050063688677604884,49.96356130024968,0)" xlink:href="#aj"/><use transform="matrix(0.050063688677604884,0,0,0.050063688677604884,54.969930168010166,0)" xlink:href="#ah"/><use transform="matrix(0.050063688677604884,0,0,0.050063688677604884,58.92496157354096,0)" xlink:href="#au"/><use transform="matrix(0.050063688677604884,0,0,0.050063688677604884,68.93769930906193,0)" xlink:href="#as"/></g><g id="X"><use transform="matrix(0.050063688677604884,0,0,0.050063688677604884,0,0)" xlink:href="#bs"/><use transform="matrix(0.050063688677604884,0,0,0.050063688677604884,12.015285282625172,0)" xlink:href="#aY"/><use transform="matrix(0.050063688677604884,0,0,0.050063688677604884,21.02674924459405,0)" xlink:href="#al"/><use transform="matrix(0.050063688677604884,0,0,0.050063688677604884,26.984328197229033,0)" xlink:href="#ah"/><use transform="matrix(0.050063688677604884,0,0,0.050063688677604884,30.93935960275982,0)" xlink:href="#aV"/><use transform="matrix(0.050063688677604884,0,0,0.050063688677604884,40.952097338280794,0)" xlink:href="#aj"/></g><g id="Y"><use transform="matrix(0.050063688677604884,0,0,0.050063688677604884,0,0)" xlink:href="#ak"/><use transform="matrix(0.050063688677604884,0,0,0.050063688677604884,10.012737735520977,0)" xlink:href="#au"/></g><g id="Z"><use transform="matrix(0.050063688677604884,0,0,0.050063688677604884,0,0)" xlink:href="#aj"/><use transform="matrix(0.050063688677604884,0,0,0.050063688677604884,5.0063688677604885,0)" xlink:href="#ap"/><use transform="matrix(0.050063688677604884,0,0,0.050063688677604884,15.019106603281465,0)" xlink:href="#aY"/><use transform="matrix(0.050063688677604884,0,0,0.050063688677604884,24.030570565250343,0)" xlink:href="#aX"/><use transform="matrix(0.050063688677604884,0,0,0.050063688677604884,34.04330830077132,0)" xlink:href="#au"/><use transform="matrix(0.050063688677604884,0,0,0.050063688677604884,44.0560460362923,0)" xlink:href="#ah"/><use transform="matrix(0.050063688677604884,0,0,0.050063688677604884,48.01107744182309,0)" xlink:href="#aY"/><use transform="matrix(0.050063688677604884,0,0,0.050063688677604884,57.022541403791976,0)" xlink:href="#ar"/><use transform="matrix(0.050063688677604884,0,0,0.050063688677604884,67.03527913931295,0)" xlink:href="#bq"/><use transform="matrix(0.050063688677604884,0,0,0.050063688677604884,70.99031054484374,0)" xlink:href="#bq"/><use transform="matrix(0.050063688677604884,0,0,0.050063688677604884,74.94534195037453,0)" xlink:href="#br"/></g><g id="aa"><use transform="matrix(0.050063688677604884,0,0,0.050063688677604884,0,0)" xlink:href="#al"/><use transform="matrix(0.050063688677604884,0,0,0.050063688677604884,5.957578952634981,0)" xlink:href="#ap"/><use transform="matrix(0.050063688677604884,0,0,0.050063688677604884,15.970316688155958,0)" xlink:href="#aR"/><use transform="matrix(0.050063688677604884,0,0,0.050063688677604884,25.983054423676936,0)" xlink:href="#aS"/><use transform="matrix(0.050063688677604884,0,0,0.050063688677604884,35.99579215919791,0)" xlink:href="#ah"/><use transform="matrix(0.050063688677604884,0,0,0.050063688677604884,39.950823564728694,0)" xlink:href="#al"/><use transform="matrix(0.050063688677604884,0,0,0.050063688677604884,45.908402517363676,0)" xlink:href="#ap"/><use transform="matrix(0.050063688677604884,0,0,0.050063688677604884,55.921140252884655,0)" xlink:href="#bn"/></g><g id="ab"><use transform="matrix(0.050063688677604884,0,0,0.050063688677604884,0,0)" xlink:href="#aY"/><use transform="matrix(0.050063688677604884,0,0,0.050063688677604884,9.011463961968879,0)" xlink:href="#ak"/><use transform="matrix(0.050063688677604884,0,0,0.050063688677604884,19.024201697489858,0)" xlink:href="#ak"/><use transform="matrix(0.050063688677604884,0,0,0.050063688677604884,29.03693943301084,0)" xlink:href="#aZ"/><use transform="matrix(0.050063688677604884,0,0,0.050063688677604884,38.048403394979715,0)" xlink:href="#ah"/><use transform="matrix(0.050063688677604884,0,0,0.050063688677604884,42.003434800510504,0)" xlink:href="#ap"/><use transform="matrix(0.050063688677604884,0,0,0.050063688677604884,52.01617253603148,0)" xlink:href="#ai"/></g><path fill="#fff" d="M30 0v-248h33v221h125V0H30" id="bH"/><g id="ac"><use transform="matrix(0.050063688677604884,0,0,0.050063688677604884,0,0)" xlink:href="#bH"/><use transform="matrix(0.050063688677604884,0,0,0.050063688677604884,10.012737735520977,0)" xlink:href="#ak"/><use transform="matrix(0.050063688677604884,0,0,0.050063688677604884,20.025475471041954,0)" xlink:href="#ar"/><use transform="matrix(0.050063688677604884,0,0,0.050063688677604884,30.03821320656293,0)" xlink:href="#bn"/></g><g id="ad"><use transform="matrix(0.050063688677604884,0,0,0.050063688677604884,0,0)" xlink:href="#aq"/><use transform="matrix(0.050063688677604884,0,0,0.050063688677604884,8.961400273291275,0)" xlink:href="#ar"/><use transform="matrix(0.050063688677604884,0,0,0.050063688677604884,18.974138008812254,0)" xlink:href="#as"/></g><g id="ae"><use transform="matrix(0.050063688677604884,0,0,0.050063688677604884,0,0)" xlink:href="#at"/><use transform="matrix(0.050063688677604884,0,0,0.050063688677604884,14.969042914603861,0)" xlink:href="#ar"/><use transform="matrix(0.050063688677604884,0,0,0.050063688677604884,24.98178065012484,0)" xlink:href="#au"/><use transform="matrix(0.050063688677604884,0,0,0.050063688677604884,34.99451838564582,0)" xlink:href="#ar"/><use transform="matrix(0.050063688677604884,0,0,0.050063688677604884,45.0072561211668,0)" xlink:href="#as"/><use transform="matrix(0.050063688677604884,0,0,0.050063688677604884,55.019993856687776,0)" xlink:href="#ap"/><use transform="matrix(0.050063688677604884,0,0,0.050063688677604884,65.03273159220875,0)" xlink:href="#al"/></g><g id="af"><use transform="matrix(0.050063688677604884,0,0,0.050063688677604884,0,0)" xlink:href="#bs"/><use transform="matrix(0.050063688677604884,0,0,0.050063688677604884,12.015285282625172,0)" xlink:href="#aX"/><use transform="matrix(0.050063688677604884,0,0,0.050063688677604884,22.02802301814615,0)" xlink:href="#ak"/><use transform="matrix(0.050063688677604884,0,0,0.050063688677604884,32.04076075366713,0)" xlink:href="#ao"/></g></defs></g></svg>