<?xml version="1.0" encoding="UTF-8"?>
<svg width="512px" height="508px" viewBox="0 0 512 508" version="1.1" xmlns="http://www.w3.org/2000/svg" xmlns:xlink="http://www.w3.org/1999/xlink">
    <title>Group 73</title>
    <defs>
        <path d="M40,0 C17.909,0 0,17.909 0,40 L0,40 L0,121 L512,121 L512,40 C512,17.909 494.092,0 472,0 L472,0 L40,0 Z M0,135 L0,317 C0,339.092 17.909,357 40,357 L40,357 L472,357 C494.092,357 512,339.092 512,317 L512,317 L512,135 L0,135 Z" id="path-1"></path>
        <path d="M0,15 C0,23.284 6.716,30 15,30 L15,30 C23.284,30 30,23.284 30,15 L30,15 C30,6.715 23.284,0 15,0 L15,0 C6.716,0 0,6.715 0,15 L0,15 Z" id="path-3"></path>
        <path d="M0,15 C0,23.284 6.715,30 15,30 L15,30 C23.284,30 30,23.284 30,15 L30,15 C30,6.715 23.284,0 15,0 L15,0 C6.715,0 0,6.715 0,15 L0,15 Z" id="path-5"></path>
        <path d="M0,15 C0,23.284 6.716,30 15,30 L15,30 C23.285,30 30,23.284 30,15 L30,15 C30,6.715 23.285,0 15,0 L15,0 C6.716,0 0,6.715 0,15 L0,15 Z" id="path-7"></path>
        <path d="M0,155.4 L188.091,343.49 L343.492,188.09 L155.402,0 L0,155.4 Z M104.652,238.838 C58.571,192.757 58.571,118.043 104.652,71.961 L104.652,71.961 C117.172,59.442 131.804,50.324 147.401,44.608 L147.401,44.608 C148.93,46.827 150.711,48.974 152.735,50.998 L152.735,50.998 C165.441,63.706 183.005,66.811 192.293,58.105 L192.293,58.105 C183.588,67.393 186.694,84.957 199.4,97.664 L199.4,97.664 C212.107,110.371 229.671,113.476 238.958,104.77 L238.958,104.77 C230.254,114.059 233.359,131.623 246.066,144.329 L246.066,144.329 C258.772,157.036 276.336,160.142 285.624,151.436 L285.624,151.436 C276.919,160.725 280.025,178.289 292.732,190.995 L292.732,190.995 C294.677,192.94 296.735,194.66 298.861,196.148 L298.861,196.148 C293.144,211.724 284.033,226.336 271.53,238.838 L271.53,238.838 C248.489,261.88 218.29,273.4 188.091,273.4 L188.091,273.4 C157.892,273.4 127.693,261.88 104.652,238.838 L104.652,238.838 Z" id="path-9"></path>
        <path d="M34.56075,27.353 C-11.52025,73.435 -11.52025,148.149 34.56075,194.23 L34.56075,194.23 C80.64275,240.313 155.35675,240.313 201.43875,194.23 L201.43875,194.23 C213.94175,181.728 223.05275,167.116 228.76975,151.54 L228.76975,151.54 C226.64375,150.052 224.58575,148.332 222.64075,146.387 L222.64075,146.387 C209.93375,133.681 206.82775,116.117 215.53275,106.828 L215.53275,106.828 C206.24475,115.534 188.68075,112.428 175.97475,99.721 L175.97475,99.721 C163.26775,87.015 160.16275,69.451 168.86675,60.162 L168.86675,60.162 C159.57975,68.868 142.01575,65.763 129.30875,53.056 L129.30875,53.056 C116.60275,40.349 113.49675,22.785 122.20175,13.497 L122.20175,13.497 C112.91375,22.203 95.34975,19.098 82.64375,6.39 L82.64375,6.39 C80.61975,4.366 78.83875,2.219 77.30975,0 L77.30975,0 C61.71275,5.716 47.08075,14.834 34.56075,27.353 L34.56075,27.353 Z" id="path-11"></path>
        <path d="M117.272988,20.08 C117.268,14.836 118.869,10.068 122.202,6.512 L122.202,6.512 C118.869,10.068 117.268,14.836 117.272988,20.08 L117.272988,20.08 Z M121.768,6.905 C121.852,6.831 121.935,6.757 122.018,6.682 L122.018,6.682 C121.935,6.757 121.852,6.831 121.768,6.905 L121.768,6.905 Z M108.679,11.441 C113.697,11.438 118.273,9.962 121.768,6.905 L121.768,6.905 C118.273,9.962 113.696,11.438 108.679,11.441 L108.679,11.441 Z M129.827,46.582 C129.785,46.541 129.745,46.501 129.702,46.46 L129.702,46.46 C129.745,46.501 129.785,46.541 129.827,46.582 L129.827,46.582 Z M165.761,55.486 C166.874,54.839 167.915,54.07 168.867,53.177 L168.867,53.177 C167.914,54.07 166.874,54.839 165.761,55.486 L165.761,55.486 Z M163.938988,66.746 C163.934,61.502 165.535,56.733 168.867,53.177 L168.867,53.177 C165.535,56.733 163.934,61.502 163.938988,66.746 L163.938988,66.746 Z M155.345,58.107 C159.167,58.104 162.734,57.247 165.761,55.486 L165.761,55.486 C162.734,57.246 159.166,58.104 155.345,58.107 L155.345,58.107 Z M176.809,93.551 C176.698,93.444 176.586,93.338 176.475,93.23 L176.475,93.23 C176.586,93.338 176.698,93.444 176.809,93.551 L176.809,93.551 Z M210.603988,113.412 C210.599,108.168 212.201,103.399 215.533,99.843 L215.533,99.843 C212.201,103.399 210.599,108.168 210.603988,113.412 L210.603988,113.412 Z M202.007,104.773 C207.236,104.769 211.987,103.167 215.533,99.843 L215.533,99.843 C211.987,103.167 207.235,104.769 202.007,104.773 L202.007,104.773 Z M34.561,187.245 C80.643,233.328 155.357,233.328 201.439,187.245 L201.439,187.245 C213.942,174.743 223.053,160.131 228.77,144.555 L228.77,144.555 C223.053,160.131 213.942,174.743 201.439,187.245 L201.439,187.245 C155.357,233.328 80.643,233.328 34.561,187.245 L34.561,187.245 C11.52,164.204 -2.84217094e-14,134.006 -2.84217094e-14,103.807 L-2.84217094e-14,103.807 C-2.84217094e-14,134.006 11.52,164.204 34.561,187.245 L34.561,187.245 Z" id="path-13"></path>
        <path d="M34.5629171,27.353 C-8.66908287,70.586 -11.3460829,139.015 26.5409171,185.364 L26.5409171,185.364 C47.4789171,198.001 72.0219171,205.272 98.2609171,205.272 L98.2609171,205.272 C148.334917,205.272 192.223917,178.795 216.691917,139.077 L216.691917,139.077 C209.197917,127.585 208.406917,114.433 215.534917,106.828 L215.534917,106.828 C206.246917,115.534 188.682917,112.428 175.976917,99.721 L175.976917,99.721 C163.269917,87.015 160.164917,69.451 168.868917,60.162 L168.868917,60.162 C159.581917,68.868 142.017917,65.763 129.310917,53.056 L129.310917,53.056 C116.604917,40.349 113.498917,22.785 122.203917,13.497 L122.203917,13.497 C112.915917,22.203 95.3519171,19.098 82.6459171,6.39 L82.6459171,6.39 C80.6219171,4.366 78.8409171,2.219 77.3119171,0 L77.3119171,0 C61.7149171,5.716 47.0829171,14.834 34.5629171,27.353 L34.5629171,27.353 Z" id="path-15"></path>
        <path d="M0,20 C0,31.046 8.954,40 20,40 L20,40 C31.045,40 40,31.046 40,20 L40,20 C40,8.954 31.045,0 20,0 L20,0 C8.954,0 0,8.954 0,20 L0,20 Z" id="path-17"></path>
    </defs>
    <g id="Page-1" stroke="none" stroke-width="1" fill="none" fill-rule="evenodd">
        <g id="Group-73" transform="translate(0.000000, 0.000000)">
            <g id="Group-3">
                <mask id="mask-2" fill="white">
                    <use xlink:href="#path-1"></use>
                </mask>
                <g id="Clip-2"></g>
                <polygon id="Fill-1" fill="#2C2C2F" mask="url(#mask-2)" points="-1 358 513 358 513 -1 -1 -1"></polygon>
            </g>
            <g id="Group-6" transform="translate(60.000000, 45.000000)">
                <mask id="mask-4" fill="white">
                    <use xlink:href="#path-3"></use>
                </mask>
                <g id="Clip-5"></g>
                <polygon id="Fill-4" fill="#E73B3A" mask="url(#mask-4)" points="-1 31 31 31 31 -1 -1 -1"></polygon>
            </g>
            <g id="Group-9" transform="translate(120.000000, 45.000000)">
                <mask id="mask-6" fill="white">
                    <use xlink:href="#path-5"></use>
                </mask>
                <g id="Clip-8"></g>
                <polygon id="Fill-7" fill="#F9B500" mask="url(#mask-6)" points="-1 31 31 31 31 -1 -1 -1"></polygon>
            </g>
            <g id="Group-12" transform="translate(180.000000, 45.000000)">
                <mask id="mask-8" fill="white">
                    <use xlink:href="#path-7"></use>
                </mask>
                <g id="Clip-11"></g>
                <polygon id="Fill-10" fill="#43AB34" mask="url(#mask-8)" points="-1 31 31 31 31 -1 -1 -1"></polygon>
            </g>
            <g id="Group-15" transform="translate(74.650000, 164.120000)">
                <mask id="mask-10" fill="white">
                    <use xlink:href="#path-9"></use>
                </mask>
                <g id="Clip-14"></g>
                <path d="M285.624,151.4359 C276.919,160.7239 280.025,178.2889 292.731,190.9949 C294.676,192.9399 296.735,194.6609 298.861,196.1479 C293.144,211.7239 284.033,226.3359 271.53,238.8389 C225.448,284.9209 150.734,284.9209 104.653,238.8389 C58.571,192.7569 58.571,118.0439 104.653,71.9619 C117.172,59.4419 131.804,50.3239 147.402,44.6069 C148.93,46.8269 150.71,48.9749 152.735,50.9989 C165.441,63.7049 183.006,66.8109 192.293,58.1049 C183.588,67.3929 186.693,84.9579 199.4,97.6639 C212.107,110.3709 229.671,113.4769 238.958,104.7699 C230.253,114.0589 233.359,131.6229 246.066,144.3299 C258.772,157.0369 276.337,160.1419 285.624,151.4359 Z" id="Stroke-13" stroke="#020203" stroke-width="28" stroke-linejoin="round" mask="url(#mask-10)"></path>
            </g>
            <g id="Group-18" transform="translate(144.741250, 208.728000)">
                <mask id="mask-12" fill="white">
                    <use xlink:href="#path-11"></use>
                </mask>
                <g id="Clip-17"></g>
                <polygon id="Fill-16" fill="#876238" mask="url(#mask-12)" points="108.75875 -122.6422 351.67275 120.2718 108.75875 363.1858 -134.15525 120.2718"></polygon>
                <circle id="Oval-Copy-17" stroke="#020203" stroke-width="12" fill="#564134" mask="url(#mask-12)" cx="118.25875" cy="234.272" r="22"></circle>
            </g>
            <g id="Group-21" transform="translate(144.741000, 215.713000)">
                <mask id="mask-14" fill="white">
                    <use xlink:href="#path-13"></use>
                </mask>
                <g id="Clip-20"></g>
                <path d="M215.533,99.8429 C206.828,109.1309 209.934,126.6959 222.64,139.4019 C224.585,141.3469 226.644,143.0679 228.77,144.5549 C223.053,160.1309 213.942,174.7429 201.439,187.2459 C155.357,233.3279 80.643,233.3279 34.562,187.2459 C-11.52,141.1639 -11.52,66.4509 34.562,20.3689 C47.081,7.8489 61.713,-1.2691 77.311,-6.9861 C78.839,-4.7661 80.619,-2.6181 82.644,-0.5941 C95.35,12.1119 112.915,15.2179 122.202,6.5119 C113.497,15.7999 116.602,33.3649 129.309,46.0709 C142.016,58.7779 159.58,61.8839 168.867,53.1769 C160.162,62.4659 163.268,80.0299 175.975,92.7369 C188.681,105.4439 206.246,108.5489 215.533,99.8429 Z" id="Stroke-19" stroke="#020203" stroke-width="28" stroke-linejoin="round" mask="url(#mask-14)"></path>
            </g>
            <g id="Group-24" transform="translate(144.739083, 208.728000)">
                <mask id="mask-16" fill="white">
                    <use xlink:href="#path-15"></use>
                </mask>
                <g id="Clip-23"></g>
                <polygon id="Fill-22" fill="#B28451" mask="url(#mask-16)" points="-12.7390829 206.272 230.260917 206.272 230.260917 -1.728 -12.7390829 -1.728"></polygon>
                <circle id="Oval-Copy-16" stroke="#020203" stroke-width="12" fill="#564134" mask="url(#mask-16)" cx="3.26091713" cy="104.272" r="22"></circle>
            </g>
            <g id="Group-10" transform="translate(301.000000, 184.000000)" fill="#B28451" stroke="#020203" stroke-width="12">
                <circle id="Oval-Copy-4" cx="80" cy="75" r="21"></circle>
                <circle id="Oval-Copy-18" cx="11" cy="14" r="17"></circle>
                <circle id="Oval-Copy-19" cx="74" cy="6" r="12"></circle>
            </g>
            <circle id="Oval-Copy-4" stroke="#020203" stroke-width="12" fill="#564134" cx="325" cy="354" r="17"></circle>
            <g id="Group-27" transform="translate(216.000000, 329.000000)">
                <mask id="mask-18" fill="white">
                    <use xlink:href="#path-17"></use>
                </mask>
                <g id="Clip-26"></g>
                <polygon id="Fill-25" fill="#503A2A" mask="url(#mask-18)" points="-1 41 41 41 41 -1 -1 -1"></polygon>
            </g>
            <circle id="Oval" stroke="#020203" stroke-width="12" fill="#564134" cx="236" cy="349" r="26"></circle>
            <circle id="Oval-Copy-5" stroke="#020203" stroke-width="12" fill="#564134" cx="223" cy="263" r="17"></circle>
            <g id="Group-63" transform="translate(367.500000, 257.000000)"></g>
        </g>
    </g>
</svg>